<mxfile host="app.diagrams.net" modified="2022-04-19T15:57:37.580Z" agent="5.0 (Windows NT 10.0; Win64; x64) AppleWebKit/537.36 (KHTML, like Gecko) Chrome/100.0.4896.88 Safari/537.36" etag="_6QJwsdVpTkLLg-KX5m_" version="17.4.5" type="github">
  <diagram id="D2W7shwD7pkVKXSD43DM" name="Page-1">
    <mxGraphModel dx="1718" dy="482" grid="1" gridSize="10" guides="1" tooltips="1" connect="1" arrows="1" fold="1" page="1" pageScale="1" pageWidth="850" pageHeight="1100" math="0" shadow="0">
      <root>
        <mxCell id="0" />
        <mxCell id="1" parent="0" />
        <mxCell id="tP4JzeRGOhvXxr9tqno0-3" style="edgeStyle=orthogonalEdgeStyle;rounded=0;orthogonalLoop=1;jettySize=auto;html=1;entryX=0.5;entryY=0;entryDx=0;entryDy=0;" parent="1" source="tP4JzeRGOhvXxr9tqno0-1" target="tP4JzeRGOhvXxr9tqno0-2" edge="1">
          <mxGeometry relative="1" as="geometry">
            <mxPoint x="400" y="130" as="targetPoint" />
          </mxGeometry>
        </mxCell>
        <mxCell id="tP4JzeRGOhvXxr9tqno0-1" value="Airplane Inputs" style="rounded=0;whiteSpace=wrap;html=1;fillColor=#d5e8d4;strokeColor=#82b366;" parent="1" vertex="1">
          <mxGeometry x="340" y="50" width="120" height="60" as="geometry" />
        </mxCell>
        <mxCell id="tP4JzeRGOhvXxr9tqno0-35" style="edgeStyle=orthogonalEdgeStyle;rounded=0;orthogonalLoop=1;jettySize=auto;html=1;exitX=0;exitY=0.25;exitDx=0;exitDy=0;entryX=0.5;entryY=0;entryDx=0;entryDy=0;" parent="1" source="tP4JzeRGOhvXxr9tqno0-2" target="tP4JzeRGOhvXxr9tqno0-20" edge="1">
          <mxGeometry relative="1" as="geometry">
            <Array as="points">
              <mxPoint x="310" y="185" />
              <mxPoint x="310" y="120" />
              <mxPoint x="-290" y="120" />
            </Array>
          </mxGeometry>
        </mxCell>
        <mxCell id="tP4JzeRGOhvXxr9tqno0-2" value="Airplane Controller&lt;br&gt;-Global controller" style="rounded=0;whiteSpace=wrap;html=1;fillColor=#d5e8d4;strokeColor=#82b366;" parent="1" vertex="1">
          <mxGeometry x="340" y="170" width="120" height="60" as="geometry" />
        </mxCell>
        <mxCell id="tP4JzeRGOhvXxr9tqno0-14" style="edgeStyle=orthogonalEdgeStyle;rounded=0;orthogonalLoop=1;jettySize=auto;html=1;entryX=0.133;entryY=1.017;entryDx=0;entryDy=0;entryPerimeter=0;" parent="1" source="tP4JzeRGOhvXxr9tqno0-4" target="tP4JzeRGOhvXxr9tqno0-2" edge="1">
          <mxGeometry relative="1" as="geometry" />
        </mxCell>
        <mxCell id="tP4JzeRGOhvXxr9tqno0-4" value="Airplane Flight Characteristics&lt;br&gt;-Lift and Drag" style="rounded=0;whiteSpace=wrap;html=1;" parent="1" vertex="1">
          <mxGeometry x="160" y="280" width="130" height="60" as="geometry" />
        </mxCell>
        <mxCell id="tP4JzeRGOhvXxr9tqno0-15" style="edgeStyle=orthogonalEdgeStyle;rounded=0;orthogonalLoop=1;jettySize=auto;html=1;exitX=0.5;exitY=0;exitDx=0;exitDy=0;" parent="1" source="tP4JzeRGOhvXxr9tqno0-6" target="tP4JzeRGOhvXxr9tqno0-2" edge="1">
          <mxGeometry relative="1" as="geometry" />
        </mxCell>
        <mxCell id="tP4JzeRGOhvXxr9tqno0-6" value="Airplane Engines&lt;br&gt;RPM&lt;br&gt;Horsepower" style="rounded=0;whiteSpace=wrap;html=1;fillColor=#d5e8d4;strokeColor=#82b366;" parent="1" vertex="1">
          <mxGeometry x="340" y="340" width="120" height="60" as="geometry" />
        </mxCell>
        <mxCell id="tP4JzeRGOhvXxr9tqno0-13" style="edgeStyle=orthogonalEdgeStyle;rounded=0;orthogonalLoop=1;jettySize=auto;html=1;" parent="1" source="tP4JzeRGOhvXxr9tqno0-9" edge="1">
          <mxGeometry relative="1" as="geometry">
            <mxPoint x="400" y="400" as="targetPoint" />
          </mxGeometry>
        </mxCell>
        <mxCell id="tP4JzeRGOhvXxr9tqno0-9" value="Airplane Propeller&lt;br&gt;-Spinning the propeller" style="rounded=0;whiteSpace=wrap;html=1;fillColor=#d5e8d4;strokeColor=#82b366;" parent="1" vertex="1">
          <mxGeometry x="335" y="470" width="130" height="60" as="geometry" />
        </mxCell>
        <mxCell id="tP4JzeRGOhvXxr9tqno0-17" style="edgeStyle=orthogonalEdgeStyle;rounded=0;orthogonalLoop=1;jettySize=auto;html=1;entryX=1;entryY=0.5;entryDx=0;entryDy=0;" parent="1" source="tP4JzeRGOhvXxr9tqno0-16" target="tP4JzeRGOhvXxr9tqno0-2" edge="1">
          <mxGeometry relative="1" as="geometry" />
        </mxCell>
        <mxCell id="tP4JzeRGOhvXxr9tqno0-16" value="Airplane Control Surface" style="rounded=0;whiteSpace=wrap;html=1;" parent="1" vertex="1">
          <mxGeometry x="720" y="210" width="140" height="60" as="geometry" />
        </mxCell>
        <mxCell id="tP4JzeRGOhvXxr9tqno0-19" style="edgeStyle=orthogonalEdgeStyle;rounded=0;orthogonalLoop=1;jettySize=auto;html=1;exitX=1;exitY=0.5;exitDx=0;exitDy=0;entryX=0;entryY=0.75;entryDx=0;entryDy=0;" parent="1" source="tP4JzeRGOhvXxr9tqno0-18" target="tP4JzeRGOhvXxr9tqno0-2" edge="1">
          <mxGeometry relative="1" as="geometry" />
        </mxCell>
        <mxCell id="tP4JzeRGOhvXxr9tqno0-18" value="Airplane Wheel" style="rounded=0;whiteSpace=wrap;html=1;" parent="1" vertex="1">
          <mxGeometry x="-10" y="190" width="120" height="60" as="geometry" />
        </mxCell>
        <mxCell id="tP4JzeRGOhvXxr9tqno0-20" value="Airplane UI" style="rounded=0;whiteSpace=wrap;html=1;" parent="1" vertex="1">
          <mxGeometry x="-350" y="140" width="120" height="60" as="geometry" />
        </mxCell>
        <mxCell id="tP4JzeRGOhvXxr9tqno0-29" style="edgeStyle=orthogonalEdgeStyle;rounded=0;orthogonalLoop=1;jettySize=auto;html=1;" parent="1" source="tP4JzeRGOhvXxr9tqno0-23" edge="1">
          <mxGeometry relative="1" as="geometry">
            <mxPoint x="-336" y="200" as="targetPoint" />
            <Array as="points">
              <mxPoint x="-480" y="250" />
              <mxPoint x="-336" y="250" />
            </Array>
          </mxGeometry>
        </mxCell>
        <mxCell id="tP4JzeRGOhvXxr9tqno0-30" style="edgeStyle=orthogonalEdgeStyle;rounded=0;orthogonalLoop=1;jettySize=auto;html=1;exitX=0.5;exitY=0;exitDx=0;exitDy=0;entryX=0.5;entryY=1;entryDx=0;entryDy=0;" parent="1" source="tP4JzeRGOhvXxr9tqno0-24" target="tP4JzeRGOhvXxr9tqno0-20" edge="1">
          <mxGeometry relative="1" as="geometry" />
        </mxCell>
        <mxCell id="tP4JzeRGOhvXxr9tqno0-31" style="edgeStyle=orthogonalEdgeStyle;rounded=0;orthogonalLoop=1;jettySize=auto;html=1;" parent="1" source="tP4JzeRGOhvXxr9tqno0-25" edge="1">
          <mxGeometry relative="1" as="geometry">
            <mxPoint x="-250" y="200" as="targetPoint" />
            <Array as="points">
              <mxPoint x="-120" y="250" />
              <mxPoint x="-250" y="250" />
            </Array>
          </mxGeometry>
        </mxCell>
        <mxCell id="tP4JzeRGOhvXxr9tqno0-25" value="Fuel Indicator" style="rounded=0;whiteSpace=wrap;html=1;" parent="1" vertex="1">
          <mxGeometry x="-180" y="280" width="120" height="60" as="geometry" />
        </mxCell>
        <mxCell id="tP4JzeRGOhvXxr9tqno0-32" style="edgeStyle=orthogonalEdgeStyle;rounded=0;orthogonalLoop=1;jettySize=auto;html=1;entryX=0.114;entryY=0.994;entryDx=0;entryDy=0;entryPerimeter=0;" parent="1" source="tP4JzeRGOhvXxr9tqno0-26" target="tP4JzeRGOhvXxr9tqno0-20" edge="1">
          <mxGeometry relative="1" as="geometry">
            <Array as="points">
              <mxPoint x="-400" y="450" />
              <mxPoint x="-400" y="320" />
              <mxPoint x="-336" y="320" />
            </Array>
          </mxGeometry>
        </mxCell>
        <mxCell id="tP4JzeRGOhvXxr9tqno0-26" value="Throttle" style="rounded=0;whiteSpace=wrap;html=1;" parent="1" vertex="1">
          <mxGeometry x="-540" y="420" width="120" height="60" as="geometry" />
        </mxCell>
        <mxCell id="tP4JzeRGOhvXxr9tqno0-34" style="edgeStyle=orthogonalEdgeStyle;rounded=0;orthogonalLoop=1;jettySize=auto;html=1;entryX=0.5;entryY=1;entryDx=0;entryDy=0;" parent="1" source="tP4JzeRGOhvXxr9tqno0-27" target="tP4JzeRGOhvXxr9tqno0-20" edge="1">
          <mxGeometry relative="1" as="geometry" />
        </mxCell>
        <mxCell id="tP4JzeRGOhvXxr9tqno0-27" value="Flaps" style="rounded=0;whiteSpace=wrap;html=1;" parent="1" vertex="1">
          <mxGeometry x="-350" y="420" width="120" height="60" as="geometry" />
        </mxCell>
        <mxCell id="tP4JzeRGOhvXxr9tqno0-33" style="edgeStyle=orthogonalEdgeStyle;rounded=0;orthogonalLoop=1;jettySize=auto;html=1;" parent="1" source="tP4JzeRGOhvXxr9tqno0-28" edge="1">
          <mxGeometry relative="1" as="geometry">
            <mxPoint x="-250" y="200" as="targetPoint" />
            <Array as="points">
              <mxPoint x="-110" y="390" />
              <mxPoint x="-250" y="390" />
            </Array>
          </mxGeometry>
        </mxCell>
        <mxCell id="tP4JzeRGOhvXxr9tqno0-28" value="Air Speed Indicator" style="rounded=0;whiteSpace=wrap;html=1;" parent="1" vertex="1">
          <mxGeometry x="-170" y="420" width="120" height="60" as="geometry" />
        </mxCell>
        <mxCell id="tP4JzeRGOhvXxr9tqno0-23" value="Tachometer" style="rounded=0;whiteSpace=wrap;html=1;" parent="1" vertex="1">
          <mxGeometry x="-540" y="280" width="120" height="60" as="geometry" />
        </mxCell>
        <mxCell id="tP4JzeRGOhvXxr9tqno0-24" value="Altimeter" style="rounded=0;whiteSpace=wrap;html=1;" parent="1" vertex="1">
          <mxGeometry x="-350" y="280" width="120" height="60" as="geometry" />
        </mxCell>
      </root>
    </mxGraphModel>
  </diagram>
</mxfile>
